<?xml version="1.0" encoding="utf-8"?><svg version="1.1" id="Layer_1" xmlns="http://www.w3.org/2000/svg" xmlns:xlink="http://www.w3.org/1999/xlink" x="0px" y="0px" viewBox="0 0 90.13 122.88" style="enable-background:new 0 0 90.13 122.88" xml:space="preserve"><style type="text/css">.st0{fill-rule:evenodd;clip-rule:evenodd;}</style><g><path class="st0" d="M38.28,61.22l25.86-18.34l25.99,18.34H38.28L38.28,61.22z M45.52,48.28l-18.78-2.71l5.4-4 C28.52,33.75,23,29.54,14.82,29.29c11.14-7.15,21.63-3.69,28.08,4.32l5.51-4.08L45.52,48.28L45.52,48.28L45.52,48.28L45.52,48.28z M14.04,0h38.23c3.87,0,7.41,1.59,9.93,4.11c2.56,2.56,4.11,6.06,4.11,9.93v24.13h-4.24V13.76H4.2v87.47h57.88v-2.38h4.24v9.99 c0,3.87-1.59,7.41-4.11,9.93c-2.56,2.56-6.06,4.11-9.93,4.11H14.04c-3.87,0-7.41-1.59-9.93-4.11C1.55,116.21,0,112.7,0,108.84 v-94.8c0-3.87,1.59-7.41,4.11-9.93C6.68,1.55,10.18,0,14.04,0L14.04,0z M31.88,105.62c3.18,0,5.78,2.56,5.78,5.78 c0,3.18-2.56,5.78-5.78,5.78c-3.17,0-5.78-2.56-5.78-5.78C26.1,108.23,28.66,105.62,31.88,105.62L31.88,105.62z M39.85,91.2v-6.01 h1.78l1.7-1.33V67.88h-3.47v-3.83h48.55v3.83h-3.46v15.97l1.7,1.33h1.81v6.01H39.85L39.85,91.2z M51.41,85.19h1.96l1.7-1.33V67.88 h-5.35v15.97L51.41,85.19L51.41,85.19L51.41,85.19z M63.16,85.19h1.96l1.69-1.33V67.88h-5.35v15.97L63.16,85.19L63.16,85.19 L63.16,85.19z M74.9,85.19h1.96l1.7-1.33V67.88H73.2v15.97L74.9,85.19L74.9,85.19L74.9,85.19z"/></g></svg>