<?xml version="1.0" encoding="utf-8"?><svg version="1.1" id="Layer_1" xmlns="http://www.w3.org/2000/svg" xmlns:xlink="http://www.w3.org/1999/xlink" x="0px" y="0px" viewBox="0 0 122.88 110.61" style="enable-background:new 0 0 122.88 110.61" xml:space="preserve"><style type="text/css">.st0{fill-rule:evenodd;clip-rule:evenodd;}</style><g><path class="st0" d="M16.02,36.71l4.08-1.85v13.6l-4.08-2.09V36.71L16.02,36.71L16.02,36.71z M67.57,26.22v14.36 c-0.63,0.49-1.19,1.09-1.65,1.77c-0.45,0.67-0.8,1.42-1.02,2.21l-4.77-2.84l0.14-20.1L67.57,26.22L67.57,26.22L67.57,26.22z M100.23,6.38H93.8c-0.27,0-0.42,0.24-0.49,0.51l-0.96,3.45c-0.07,0.27,0.22,0.51,0.49,0.51h4.84c-0.4,1.24-0.62,2.56-0.62,3.93 c0,6.86,5.38,12.42,12.01,12.42c6.63,0,12.01-5.56,12.01-12.42c0-6.86-5.38-12.42-12.01-12.42C105.58,2.36,102.43,3.91,100.23,6.38 L100.23,6.38z M120.1,71.58l2.78,32.52c-0.07,7.87-10.67,8.64-11.82,2.15l-1.97-31.72l-2.85,30.34c-2.5,8.8-12.81,5.51-11.82-1.19 l1.76-10.21l1.53-24.84c-1.43-7.27,0.03-16.09-0.45-23.56c-4.47,4.49-7.94,7.83-14.73,8.01c-2.15-0.08-5.57-0.24-7.72-0.48 c-2.62-0.3-4.47-0.18-6.11-2.56c-2.58-3.73,0.83-8.04,4.16-7.34c3.77,0.33,10.55,1.19,13.11-1.96c2.66-2.54,4.71-6.09,8.17-7.22 c19.51-6.34,24.36-3.85,26.04,3.12c0.47,1.97,1.1,21.85,0.89,25.78C120.87,66.21,120.73,69.85,120.1,71.58L120.1,71.58z M70.62,19.69l7.24,4.11L68.44,25l-6.6-4.16L70.62,19.69L70.62,19.69L70.62,19.69z M69.07,39.68V26.43l9.82-1.25l0.32,9.38 l3.45-2.35l3.45,1.95l-0.71-9.81l5.89-0.67v7.07c-2.29,1.13-3.9,3.03-5.52,4.93c-0.7,0.82-1.39,1.64-2.08,2.3 c-0.08,0.08-0.16,0.17-0.24,0.26c-1.47,1.81-6.68,1.32-9.97,1.02c-1.34-0.12,1.71,0.14-0.69-0.07 C71.49,38.97,70.21,39.17,69.07,39.68L69.07,39.68z M84.47,22.96l-7.02-4.16l2.92-0.3l8.93,3.93L84.47,22.96L84.47,22.96 L84.47,22.96z M0,76.91h3.24h56.23h3.8v5.62H0V76.91L0,76.91L0,76.91z M50.39,4.65v69.78h4.9V0H6.17v74.43h4.9V4.65H50.39 L50.39,4.65z"/></g></svg>
