<svg xmlns="http://www.w3.org/2000/svg" shape-rendering="geometricPrecision" text-rendering="geometricPrecision" image-rendering="optimizeQuality" fill-rule="evenodd" clip-rule="evenodd" viewBox="0 0 512 385.414"><path fill="#3B95D9" fill-rule="nonzero" d="M26.217 0h382.258c14.366 0 26.16 11.803 26.16 26.158V264.76c0 14.364-11.796 26.16-26.16 26.16H26.217c-14.384 0-26.16-11.776-26.16-26.16V26.158C.057 11.798 11.859 0 26.217 0z"/><path fill="#42A6F1" d="M26.216 7.674h382.26c10.166 0 18.484 8.356 18.484 18.484v238.603c0 10.128-8.356 18.483-18.484 18.483H26.216c-10.128 0-18.483-8.317-18.483-18.483V26.158c0-10.166 8.317-18.484 18.483-18.484z"/><path fill="#4D5471" d="M0 56.192h434.691v74.811H0z"/><path fill="#D54C3D" fill-rule="nonzero" d="M103.585 94.494H485.84c7.197 0 13.737 2.948 18.471 7.682l.47.515c4.467 4.71 7.219 11.051 7.219 17.961v238.602c0 14.364-11.796 26.16-26.16 26.16H103.585c-14.383 0-26.16-11.777-26.16-26.16V120.652c0-7.167 2.939-13.697 7.679-18.449l.049-.048c4.749-4.728 11.273-7.661 18.432-7.661z"/><path fill="#ED5444" d="M103.585 102.168H485.84c10.167 0 18.484 8.356 18.484 18.484v238.602c0 10.128-8.356 18.484-18.484 18.484H103.585c-10.128 0-18.484-8.317-18.484-18.484V120.652c0-10.167 8.317-18.484 18.484-18.484z"/><path fill="#F8D14A" fill-rule="nonzero" d="M126.406 283.827a8.33 8.33 0 110-16.661h167.77a8.33 8.33 0 010 16.661h-167.77zm242.263-26.394c12.433 0 23.464 5.995 30.363 15.254 6.9-9.259 17.932-15.254 30.367-15.254 20.9 0 37.845 16.944 37.845 37.844 0 20.902-16.945 37.846-37.845 37.846-12.435 0-23.467-5.997-30.367-15.256-6.899 9.259-17.93 15.256-30.363 15.256-20.903 0-37.846-16.944-37.846-37.846 0-20.9 16.943-37.844 37.846-37.844zm-242.263 65.959a8.331 8.331 0 010-16.661h126.509a8.332 8.332 0 010 16.661H126.406z"/><path fill="#DACD71" d="M139.602 153.639h56.914c7.258 0 13.197 5.939 13.197 13.197v2.883h-83.307v-2.883c0-7.258 5.938-13.197 13.196-13.197zm70.111 20.621v28.134h-25.844V174.26h25.844zm-30.384 28.134h-22.568V174.26h22.568v28.134zm-27.109 0h-25.814V174.26h25.814v28.134zm57.493 4.541v2.928c0 7.257-5.94 13.196-13.197 13.196h-56.914c-7.257 0-13.196-5.938-13.196-13.196v-2.928h83.307z"/></svg>