<svg xmlns="http://www.w3.org/2000/svg" shape-rendering="geometricPrecision" text-rendering="geometricPrecision" image-rendering="optimizeQuality" fill-rule="evenodd" clip-rule="evenodd" viewBox="0 0 288 512.31"><path d="m71.52 320.43 144.91-.1c7.85-.01 14.3 6.44 14.31 14.29l.04 49.64c0 7.85-6.44 14.3-14.29 14.31l-144.92.1c-7.85.01-14.3-6.43-14.31-14.28l-.04-49.65c0-7.84 6.44-14.31 14.3-14.31zM51.27 0h185.46c14.14 0 26.89 5.76 36.23 15.04C282.24 24.32 288 37.13 288 51.26v409.79c0 14.14-5.76 26.89-15.04 36.22-9.28 9.29-22.09 15.04-36.23 15.04H51.27c-14.14 0-26.89-5.75-36.23-15.04C5.76 487.99 0 475.19 0 461.05V51.26c0-14.13 5.76-26.89 15.04-36.22C24.33 5.76 37.18 0 51.27 0zM158.6 135.11h39.23v39.07H158.6v-39.07zM97.38 104.5H80.44c-12.54 0-22.85 10.31-22.85 22.85v19.89h10.13v-19.89c0-6.99 5.72-12.71 12.72-12.71h16.94V104.5zm110.17 0h-12.59v10.14h12.59c7.01 0 12.71 5.72 12.71 12.71v19.89h10.15v-19.89c0-12.54-10.3-22.85-22.86-22.85zm22.86 146.16v-21.55h-10.15v21.55c0 7-5.74 12.74-12.71 12.74h-12.59v10.15h12.59c12.64 0 22.86-10.37 22.86-22.89zM80.44 273.55h16.94V263.4H80.44c-6.99 0-12.72-5.74-12.72-12.74v-21.55H57.59v21.55c0 12.59 10.29 22.89 22.85 22.89zm9.73-138.44h39.21v39.07H90.17v-39.07zm9.52 9.5h20.17v20.09H99.69v-20.09zm88.3 88.5H198v9.84h-10.01v-9.84zm-19.21-.01h10v9.37h-20v-19.18h9.68v-9.72h9.85v-19.38h10v9.53h9.53v9.84h-9.53v9.84h-19.53v9.7zm-29.71-19.69h9.7v-9.83h-9.38v-9.86h9.38v-9.84h-9.54v9.84h-10v-9.84h9.84v-29.22h10v29.22h9.68v9.84h9.54v-9.84h10v9.84h-9.51v9.84h-10v19.37h-9.7v19.55h-10.01v-29.07zm48.76-29.53h10v9.84h-10v-9.84zm-78.13 0h10v9.84h-10v-9.84zm-19.53 0h10v9.84h-10v-9.84zm48.9-48.77h10.01v9.85h-10.01v-9.85zm-49.06 68.61h39.22v39.07H90.01v-39.07zm9.52 9.5h20.17v20.09H99.53v-20.09zm68.61-68.61h20.17v20.09h-20.17v-20.09zM144 456.53c11.57 0 20.99 9.42 20.99 20.99 0 11.56-9.42 20.99-20.99 20.99-11.57 0-21-9.43-21-20.99 0-11.57 9.39-20.99 21-20.99zm-129.24-16.1h258.53V64.45H14.76v375.98zm96.91-71.38h-7.69v8.93H92.16v-36.95h18.62c8.47 0 12.71 4.55 12.71 13.66 0 5-1.11 8.72-3.31 11.11-.82.9-1.98 1.68-3.43 2.3-1.45.62-3.16.95-5.08.95zm-7.69-18.56v9.1h2.72c1.42 0 2.46-.16 3.1-.44.64-.29.98-.98.98-2.04v-4.14c0-1.06-.33-1.76-.98-2.04-.64-.29-1.69-.44-3.1-.44h-2.72zm34.07 27.49h-12.47l9.58-36.95h18.27l9.57 36.95h-12.47l-1.36-5.86h-9.76l-1.36 5.86zm5.91-25.6-2.42 10.35h5.44l-2.36-10.35h-.66zm31.84-11.35 3.25 13h.41l3.31-13h13.07l-10.64 26.89v10.06h-11.83v-10.06l-10.64-26.89h13.07z"/></svg>